<?xml version="1.0" standalone="no"?><svg xmlns="http://www.w3.org/2000/svg" viewBox="0 0 1440 320"><path fill="#00cba9" fill-opacity="1" d="M0,160L15,160C30,160,60,160,90,176C120,192,150,224,180,245.3C210,267,240,277,270,256C300,235,330,181,360,160C390,139,420,149,450,149.3C480,149,510,139,540,165.3C570,192,600,256,630,250.7C660,245,690,171,720,117.3C750,64,780,32,810,16C840,0,870,0,900,37.3C930,75,960,149,990,186.7C1020,224,1050,224,1080,197.3C1110,171,1140,117,1170,106.7C1200,96,1230,128,1260,165.3C1290,203,1320,245,1350,245.3C1380,245,1410,203,1425,181.3L1440,160L1440,0L1425,0C1410,0,1380,0,1350,0C1320,0,1290,0,1260,0C1230,0,1200,0,1170,0C1140,0,1110,0,1080,0C1050,0,1020,0,990,0C960,0,930,0,900,0C870,0,840,0,810,0C780,0,750,0,720,0C690,0,660,0,630,0C600,0,570,0,540,0C510,0,480,0,450,0C420,0,390,0,360,0C330,0,300,0,270,0C240,0,210,0,180,0C150,0,120,0,90,0C60,0,30,0,15,0L0,0Z"></path></svg>